<?xml version="1.0" encoding="UTF-8"?>
<!DOCTYPE svg PUBLIC "-//W3C//DTD SVG 1.1//EN" "http://www.w3.org/Graphics/SVG/1.1/DTD/svg11.dtd">
<!-- Creator: CorelDRAW -->
<svg xmlns="http://www.w3.org/2000/svg" xml:space="preserve" width="28.5cm" height="11.5cm" style="shape-rendering:geometricPrecision; text-rendering:geometricPrecision; image-rendering:optimizeQuality; fill-rule:evenodd; clip-rule:evenodd"
viewBox="0 0 28.5 11.5"
 xmlns:xlink="http://www.w3.org/1999/xlink">
 <defs>
  <style type="text/css">
   <![CDATA[
    .fil3 {fill:#0F3F78}
    .fil2 {fill:#AAA9A9}
    .fil0 {fill:#FACF00}
    .fil1 {fill:#DA251D}
   ]]>
  </style>
 </defs>
 <g id="Layer_x0020_1">
  <metadata id="CorelCorpID_0Corel-Layer"/>
  <g id="_42077768">
   <path id="_67108280" class="fil0" d="M16.3309 2.20475c0,0.86797 -0.70372,1.57178 -1.57205,1.57178 -0.86642,-0.0001 -1.57014,-0.70381 -1.57014,-1.57178 0,-0.86742 0.70372,-1.57113 1.57014,-1.57113 0.86833,0 1.57205,0.70381 1.57205,1.57113z"/>
   <path id="_67108080" class="fil1" d="M16.5706 3.08449l0.05626 -0.15464c0,0 -0.10798,-0.00534 -0.13136,0 -0.02237,0.00544 -0.05625,0.06912 -0.05625,0.06912l0.03388 0.06315 0.09747 0.02237zm2.0511 0.05082l0.06813 -0.07319 -0.12493 -0.08117 -0.05852 0.03551 0.11532 0.11885zm0.2225 0.17711c0,0 -0.07483,-0.18218 -0.09748,-0.18218 -0.02238,0 -0.06903,0.05082 -0.06903,0.05082 0,0 0.02328,0.15473 0.04022,0.17711l0.12629 -0.04575zm-2.82168 -1.4107c0.04539,-0.05816 0.1368,-0.21153 0.22277,-0.24632 0.08561,-0.03333 -0.01214,-0.05562 -0.08027,-0.02817 -0.06767,0.02817 -0.18825,0.21642 -0.1425,0.27449zm-0.62228 0.70825c0.03389,-0.08597 0.12566,-0.21153 0.18762,-0.19432 0.06296,0.01658 0.08027,0.06903 0.08027,0.06903 0,0 -0.01088,-0.1598 -0.09177,-0.16678 -0.07991,-0.00453 -0.25122,0.24578 -0.17612,0.29207zm0.13653 0.22884c0.01721,0.04982 0.08561,0.14857 0.10291,0.09104 0.01757,-0.05689 -0.11378,-0.12646 -0.10291,-0.09104zm-0.19496 -0.86262c0.05843,-0.16107 0.80537,-0.70879 0.91498,-0.70879 0.10799,-9e-005 0.27359,0.15917 0.2908,0.17765 0.01794,0.01621 0.10165,0.03388 0.17195,0.03388 0.06876,0 0.25665,0.17104 0.27966,0.18254 0.02364,0.01205 0.11985,0.02328 0.17674,0.03995 0.0578,0.01685 0.27413,0.18889 0.31952,0.18889 0.04575,-9e-005 0.26371,0.04058 0.33718,0.10228 0.0742,0.06323 0.37714,0.23418 0.45731,0.23418 0.08027,0 0.18862,-0.03959 0.18862,-0.17095 0,-0.13145 -0.33139,-0.33746 -0.33139,-0.46818 0,-0.06332 0.0578,-0.1493 0.14857,-0.17674 0.09114,-0.02945 0.25085,-0.0636 0.2966,-0.10935 0,0.25755 -0.10327,0.29116 -0.27929,0.30874 0,0.1425 0.26842,0.1598 0.27413,0.47361 0.00516,0.31445 -0.29724,0.29117 -0.48059,0.25221 0.0866,0.10799 0.02391,0.26208 0,0.2918 -0.02211,0.02745 -0.02211,0.10835 0.02844,0.1425 0.05173,0.03288 0.16579,0 0.18309,0.01024 0.0173,0.0115 0.02872,0.15464 0.03451,0.18408 0.0058,0.02772 0.17702,0.18789 0.21217,0.21153 0.03388,0.02265 0.0732,0.0048 0.0732,0.0048l0.01757 0.1435 -0.17121 0.0048 -0.14387 -0.1078c-0.02237,0.04575 -0.06196,0.05064 -0.09113,0.03433 -0.02808,-0.01766 -0.14277,-0.05689 -0.22268,-0.11441 -0.07963,-0.05699 -0.21035,-0.03488 -0.30873,-0.03488 -0.09621,-9e-005 -0.19976,-0.131 -0.23844,-0.17675 -0.04059,-0.04566 -0.00644,-0.20003 -0.00644,-0.20003 0,-9e-005 0.14867,0.22857 0.22821,0.26272 0.0799,0.03379 0.29216,0.00643 0.35476,0.00643 0.06232,-9e-005 0.21669,0.13127 0.21669,0.13127 0,0 -0.10391,-0.12012 -0.16614,-0.15464 -0.06269,-0.03424 -0.24451,-0.03415 -0.33112,-0.03415 -0.0847,-9e-005 -0.19975,-0.10871 -0.22856,-0.22277 -0.02872,-0.11414 -0.08018,-0.32024 -0.08018,-0.32024 0,-9e-005 -0.01023,0.13136 -0.01023,0.18762 0,0.05816 -0.02365,0.13896 -0.07447,0.14376 -0.05173,0.00544 -0.22911,0.01758 -0.2908,0.01151 -0.06459,-0.00507 -0.22983,0.01123 -0.41229,0.05182 0.04539,-0.02274 0.02745,-0.10808 0.00607,-0.13136 0,0.03895 -0.10934,0.1483 -0.17701,0.18218 -0.06876,0.03406 -0.12049,0.09132 -0.14323,0.13163 -0.02238,0.04086 0.01757,0.09204 0.06812,0.11469 0.05237,0.02211 0.14278,0.02211 0.16651,0.01151 0.02238,-0.01151 0.07447,-0.11442 0.10699,-0.14894 0.03588,-0.03415 0.20166,0.03452 0.20166,0.03452l-0.08561 0.12502 -0.06903 0.00661c0,0 -0.03388,0.15319 -0.14187,0.1714 -0.10998,0.01594 -0.27549,-0.0636 -0.38003,-0.13553 -0.03542,-9e-005 -0.13834,-0.03415 -0.15464,-0.13643 -0.01631,-0.09847 0.05145,-0.31771 0.10191,-0.33338 0.05273,-0.01721 0.11188,0.01567 0.06867,0.06749 -0.04185,0.05073 -0.09394,0.18083 -0.04185,0.24986 -0.04412,-0.078 0.05916,-0.2071 0.09367,-0.23201 0.03452,-0.02691 0.09458,-0.08534 0.03452,-0.11188 -0.22757,-0.09748 -0.22304,-0.29977 -0.22304,-0.45378 -0.10355,0.15392 0.08534,0.43593 0.08534,0.43593 0,-9e-005 -0.14513,-0.0086 -0.2148,-0.01694 -0.06876,-0.00969 -0.18761,-0.06776 -0.18761,-0.06776 0,-9e-005 0.17158,0.27449 0.19685,0.34262 0.02627,0.06903 -0.05046,0.05145 -0.05046,0.05145 0,-9e-005 0,0.05237 0,0.08598 0,0.03351 -0.07736,0.11052 -0.12909,0.07637 -0.05082,-0.03389 -0.20519,-0.07637 -0.24904,-0.09395 -0.04276,-0.01603 -0.11985,0.05109 -0.11985,0.05109 9e-005,0 -0.06767,-0.09394 -0.11152,-0.09394 -0.04276,0 -0.21316,0.20546 -0.32432,0.1368 0.09267,-0.03389 0.2051,-0.31708 0.2051,-0.31708 -0.06867,0.00797 -0.17992,0.30077 -0.33365,0.22313 0.0847,-0.01603 0.20872,-0.21896 0.24768,-0.36817 0.02881,-0.10871 0.15953,-0.51456 0.21642,-0.67409z"/>
   <path id="_67102792" class="fil1" d="M13.0465 3.06212l0.03424 -0.06324c0,0 -0.03424,-0.06359 -0.05725,-0.06903 -0.02238,-0.00543 -0.13163,0 -0.13163,0l0.05689 0.15464 0.09775 -0.02237zm-2.03443 -0.04566l-0.05626 -0.03551 -0.12565 0.08117 0.06876 0.07319 0.11315 -0.11885zm-0.21 0.34171c0.01595,-0.02238 0.03959,-0.17711 0.03959,-0.17711 0,0 -0.04602,-0.05082 -0.06839,-0.05082 -0.02301,0 -0.09748,0.18218 -0.09748,0.18218l0.12628 0.04575zm2.55289 -1.73094c-0.06876,-0.02754 -0.16623,-0.00507 -0.08026,0.02817 0.08534,0.03479 0.17674,0.18825 0.22304,0.24641 0.04547,-0.05825 -0.0751,-0.24641 -0.14278,-0.27458zm0.6625 0.65163c-0.08026,0.00543 -0.09177,0.16524 -0.09177,0.16524 0,0 0.01731,-0.05173 0.07991,-0.06903 0.06332,-0.0164 0.11795,0.12112 0.15183,0.20618 0.07347,-0.04674 -0.06006,-0.30873 -0.13997,-0.30239zm-0.08597 0.65099c0.01658,0.05753 0.08597,-0.04122 0.10355,-0.09104 0.01114,-0.03552 -0.12085,0.03424 -0.10355,0.09104zm0.46239 -0.27966c0.03967,0.1493 0.1637,0.35223 0.24903,0.36826 -0.15473,0.07755 -0.26625,-0.21506 -0.33437,-0.22313 9e-005,0 0.11188,0.28319 0.20582,0.31708 -0.11179,0.06866 -0.28346,-0.1368 -0.32559,-0.1368 -0.04185,0 -0.11097,0.09394 -0.11097,0.09394 9e-005,0 -0.07791,-0.06712 -0.11985,-0.05109 -0.04376,0.01758 -0.19777,0.06006 -0.24895,0.09395 -0.0511,0.03415 -0.1291,-0.04286 -0.1291,-0.07637 0,-0.03361 0.02655,-0.12375 0.02655,-0.12375 0,0 -0.078,0.01757 -0.05246,-0.05173 0.02591,-0.06749 0.16588,-0.26879 0.16588,-0.26879 0,-9e-005 -0.11342,0.02238 -0.18182,0.03198 -0.0684,0.00825 -0.16071,0.00834 -0.16071,0.00834 0,-9e-005 0.14857,-0.13109 0.0453,-0.28446 9e-005,0.15337 -0.00924,0.21343 -0.23645,0.31091 -0.06006,0.02654 0,0.08506 0.03515,0.11188 0.03388,0.02491 0.16524,0.17964 0.12212,0.25601 0.05109,-0.06812 -0.02881,-0.22303 -0.07103,-0.27386 -0.04375,-0.05182 0.01667,-0.0847 0.06876,-0.06749 0.05046,0.01567 0.11922,0.23491 0.10228,0.33338 -0.0173,0.10219 -0.12049,0.13643 -0.15437,0.13643 -0.10608,0.07184 -0.27168,0.15147 -0.3794,0.13553 -0.10889,-0.0183 -0.1435,-0.17131 -0.1435,-0.17131l-0.06803 -0.0067 -0.08624 -0.12502c0,0 0.16578,-0.06867 0.20093,-0.03452 0.03361,0.03452 0.0847,0.13743 0.10771,0.14894 0.02365,0.0106 0.11478,0.0106 0.16524,-0.01151 0.05146,-0.02265 0.09177,-0.07374 0.06904,-0.11469 -0.02238,-0.04031 -0.07411,-0.09748 -0.14314,-0.13163 -0.06749,-0.03397 -0.17711,-0.14323 -0.17711,-0.18218 -0.02165,0.02328 -0.03959,0.10862 0.00607,0.13136 -0.18336,-0.04068 -0.3486,-0.05689 -0.41156,-0.05182 -0.06269,0.00607 -0.24007,-0.00607 -0.29152,-0.01151 -0.0511,-0.0048 -0.0511,-0.06803 -0.0511,-0.12528 0,-0.05816 -0.01024,-0.18889 -0.01024,-0.18889 0,0 -0.02364,0.23971 -0.08089,0.32568 -0.0655,0.09847 -0.16651,0.20012 -0.25176,0.20012 -0.0847,-9e-005 -0.26815,0 -0.33111,0.03415 -0.06269,0.03452 -0.16588,0.15464 -0.16588,0.15464 0,0 0.15437,-0.13127 0.21733,-0.13127 0.06197,-9e-005 0.27386,0.02745 0.3534,-0.00643 0.08063,-0.03424 0.26915,-0.2282 0.26915,-0.2282 0,-9e-005 -0.00453,0.11985 -0.04539,0.16551 -0.04058,0.04575 -0.14322,0.17675 -0.23907,0.17675 -0.09811,-9e-005 -0.25755,-0.06233 -0.33809,-0.0048 -0.08026,0.05689 -0.16524,0.13652 -0.19432,0.15409 -0.02817,0.01622 -0.06903,0.01151 -0.09177,-0.03424l-0.14187 0.10771 -0.17158 -0.0048 0.01658 -0.1435c0,0 0.03959,0.01794 0.07483,-0.0048 0.03388,-0.02373 0.20637,-0.18372 0.21153,-0.21153 0.00544,-0.02944 0.03325,-0.14857 0.05173,-0.16134 0.0173,-0.01124 0.1704,0.01277 0.22186,-0.02274 0.05173,-0.03325 0.03452,-0.13643 0.01151,-0.16651 -0.02274,-0.02808 -0.08471,-0.18182 0,-0.28926 -0.19976,0.07347 -0.52544,0.07356 -0.51964,-0.24098 0.00571,-0.31381 0.27413,-0.33102 0.27413,-0.47361 -0.17729,-0.01758 -0.27993,-0.0511 -0.27993,-0.30874 0.04602,0.04566 0.20583,0.0799 0.29723,0.10935 0.09168,0.02735 0.14794,0.11342 0.14794,0.17674 0,0.13063 -0.33039,0.33682 -0.33039,0.46818 0,0.13127 0.10889,0.17095 0.18816,0.17095 0.08027,0 0.38321,-0.17095 0.45677,-0.23418 0.07383,-0.0617 0.29143,-0.10228 0.33709,-0.10228 0.04602,-9e-005 0.26272,-0.17195 0.32024,-0.18889 0.05753,-0.01667 0.15437,-0.02781 0.17612,-0.03995 0.024,-0.01159 0.21189,-0.18254 0.28056,-0.18254 0.06912,0 0.15437,-0.01758 0.17131,-0.03388 0.01758,-0.01857 0.18282,-0.17765 0.29116,-0.17765 0.10899,-9e-005 0.85719,0.54781 0.91435,0.70888 0.05662,0.15944 0.18825,0.56529 0.21634,0.67391z"/>
   <path id="_67102592" class="fil1" d="M9.75663 6.62075l0 -2.18245c0,0 0.67401,9e-005 0.87956,9e-005 0.20546,-9e-005 0.58803,0.23934 0.58803,0.58767 0,0.34923 -0.26271,0.675 -0.49409,0.675l0.652 0.91969 -0.54872 0 -0.48938 -0.72319 0 -0.54809c0.24868,0 0.41999,-0.06006 0.41999,-0.26652 0,-0.20492 -0.16298,-0.28156 -0.23971,-0.28156 -0.077,0 -0.2908,0 -0.2908,0l0 1.81936 -0.47688 0z"/>
   <path id="_67102392" class="fil1" d="M12.3399 5.77861c0,-0.03823 -0.00671,-0.07374 -0.01948,-0.10572 -0.01178,-0.03234 -0.02908,-0.06034 -0.05146,-0.08307 -0.02427,-0.02301 -0.04982,-0.04086 -0.0799,-0.05363 -0.03098,-0.01414 -0.06359,-0.02048 -0.09965,-0.02048 -0.07637,-9e-005 -0.13779,0.02491 -0.18481,0.07347 -0.04629,0.0501 -0.06867,0.11279 -0.06867,0.18952l0.50397 -9e-005zm0.04955 0.39924l0.33492 0.15174c-0.04276,0.0838 -0.10708,0.17267 -0.18408,0.22512 -0.11823,0.08181 -0.27133,0.12266 -0.46374,0.12266 -0.22531,0 -0.40269,-0.06359 -0.53115,-0.18952 -0.12782,-0.12882 -0.19142,-0.30393 -0.19142,-0.52697 0,-0.22666 0.0674,-0.41002 0.20519,-0.55324 0.13779,-0.14414 0.31635,-0.21407 0.53214,-0.21407 0.21733,-9e-005 0.38928,0.0674 0.51674,0.20673 0.12846,0.14032 0.19269,0.32568 0.19269,0.55551l-0.00281 0.09168 -0.97097 0.00697c0.01151,0.17095 0.12982,0.27776 0.27676,0.27776 0.11415,0 0.25058,-0.08407 0.28573,-0.15437z"/>
   <path id="_67102192" class="fil1" d="M13.4169 5.95092c0,0.2416 0.10581,0.36245 0.31798,0.36245 0.19876,0 0.30013,-0.12429 0.30013,-0.37423 0,-0.23817 -0.09784,-0.3573 -0.2899,-0.3573 -0.2205,-9e-005 -0.32821,0.12239 -0.32821,0.36908zm0.61811 0.69194c0,-0.01577 0,-0.16425 0,-0.19776 -0.05182,0.08651 -0.14069,0.18018 -0.20682,0.21343 -0.0655,0.0125 -0.14504,0.01884 -0.24034,0.01884 -0.19559,0 -0.34933,-0.06359 -0.46175,-0.18952 -0.10962,-0.12682 -0.16461,-0.30294 -0.16461,-0.5276 0,-0.2369 0.05399,-0.41963 0.16171,-0.54935 0.10771,-0.13046 0.26109,-0.19623 0.45858,-0.19623 0.10708,-9e-005 0.19432,0.01785 0.26081,0.05363 0.0694,0.03642 0.1435,0.05019 0.19242,0.14033 -0.00254,-0.04711 0,-1.07795 0,-1.07795l0.45124 -9e-005 0 2.31227 -0.45124 0z"/>
   <path id="_67101968" class="fil1" d="M15.6738 6.23248l0 -1.41134c0,0 0.22848,9e-005 0.33619,9e-005 0.10898,-9e-005 0.18345,0.12466 0.18345,0.22784 0,0.10391 -0.11985,0.2292 -0.18852,0.2292 -0.06903,-9e-005 -0.20619,0 -0.20619,0l9e-005 0.40486c0,0 0.24632,0 0.33166,0 0.0866,0 0.24034,0.12501 0.24034,0.27485 0,0.14794 -0.1377,0.27966 -0.24641,0.27966 -0.10763,-9e-005 -0.45061,-0.00507 -0.45061,-0.00516zm-0.46691 0.38827l0 -2.17765 0.7309 0c0.25085,0 0.43783,0.05662 0.55768,0.17068 0.12339,0.11568 0.1493,0.26752 0.1493,0.45323 0,0.16651 -0.07039,0.28763 -0.16877,0.3621 0.23744,0.08878 0.35729,0.30004 0.35729,0.58549 0,0.28627 -0.2397,0.60624 -0.674,0.60624l-0.9524 -9e-005z"/>
   <path id="_42173488" class="fil1" d="M16.9669 5.27274l0.44299 0 0 0.79839c0,0.08525 0.03488,0.14576 0.0655,0.18445 0.03225,0.03225 0.09304,0.04855 0.18182,0.04855 0.08796,0 0.14739,-0.0163 0.17674,-0.04855 0.03198,-0.03144 0.0684,-0.0934 0.0684,-0.18445l0 -0.79839 0.44236 0 0 0.85075c0,0.05626 -0.0048,0.10908 -0.0144,0.1551 -0.00988,0.04402 -0.02591,0.0866 -0.04702,0.12302 -0.02138,0.03732 -0.04819,0.07193 -0.08144,0.10255 -0.03452,0.03008 -0.07483,0.05979 -0.12049,0.08434 -0.12502,0.0665 -0.26625,0.10038 -0.42479,0.10038 -0.16007,0 -0.3004,-0.03388 -0.42433,-0.10038 -0.04765,-0.02464 -0.08733,-0.05299 -0.12085,-0.08434 -0.03352,-0.03008 -0.06106,-0.06387 -0.08244,-0.10128 -0.02111,-0.03778 -0.03678,-0.08027 -0.04702,-0.12429 -0.00987,-0.04611 -0.01503,-0.09884 -0.01503,-0.15501l0 -0.85084z"/>
   <polygon id="_42170048" class="fil1" points="19.0095,6.64286 18.5879,6.64286 18.5879,4.33059 19.0095,4.33059 "/>
   <polygon id="_67067336" class="fil1" points="19.7406,6.64286 19.3195,6.64286 19.3195,4.33059 19.7406,4.33059 "/>
   <polygon id="_42165280" class="fil2" points="6.88332,9.9761 5.27893,9.9761 4.80876,10.9298 6.4136,10.9298 "/>
   <polygon id="_42707744" class="fil2" points="5.7491,9.0228 4.1439,9.0228 3.67427,9.9761 5.27893,9.9761 "/>
   <polygon id="_42095568" class="fil2" points="8.95906,9.0228 7.35376,9.0228 6.88332,9.9761 8.48925,9.9761 "/>
   <polygon id="_66850896" class="fil2" points="7.8243,8.06914 6.22036,8.06914 5.7491,9.0228 7.35376,9.0228 "/>
   <polygon id="_66866832" class="fil2" points="2.53978,9.0228 0.93422,9.0228 0.46432,9.9761 2.0687,9.9761 "/>
   <polygon id="_66846928" class="fil2" points="4.61516,8.06914 3.01014,8.06914 2.53978,9.0228 4.1439,9.0228 "/>
   <polygon id="_42172112" class="fil2" points="6.69054,7.1152 5.08533,7.1152 4.61516,8.06914 6.22036,8.06914 "/>
   <polygon id="_42170760" class="fil2" points="9.90013,7.1152 8.29465,7.1152 7.8243,8.06914 9.42941,8.06914 "/>
   <polygon id="_42092808" class="fil2" points="8.76528,6.16218 7.16071,6.16218 6.69054,7.1152 8.29465,7.1152 "/>
   <path id="_42096232" class="fil3" d="M10.5509 8.03915l0 -0.32794c0,-0.04412 0.02935,-0.08108 0.06523,-0.08108l1.36205 -9e-005c0.03488,0 0.06523,0.03714 0.06523,0.08126l0 0.32785c0,0.04476 -0.03044,0.08371 -0.06523,0.08371l-1.36205 -9e-005c-0.03578,0 -0.06523,-0.03886 -0.06523,-0.08362zm-0.05526 -0.65806c-0.18281,0 -0.33175,0.14866 -0.33175,0.33021l0 0.32785c0,0.18182 0.14894,0.33012 0.33175,0.33012l2.10546 -0.00516c0,0 -0.17068,-0.06097 -0.17068,-0.24315 0,-0.18227 0,-0.40966 0,-0.40966 0,-0.18164 -0.14803,-0.33021 -0.33175,-0.33021l-1.60303 0z"/>
   <path id="_67211504" class="fil3" d="M15.0823 8.12277l-1.63374 0c-0.03515,0 -0.0655,-0.03886 -0.0655,-0.08362l0 -0.32794c0,-0.04412 0.03035,-0.08108 0.0655,-0.08108l1.63374 -9e-005 0 -0.24895 -1.7536 0c-0.18435,0 -0.33238,0.14866 -0.33238,0.33021l9e-005 0.32785c0,0.18182 0.14794,0.33012 0.33229,0.33012l1.7536 0 0 -0.2465z"/>
   <path id="_67213744" class="fil3" d="M17.1942 8.37597l0 -0.66476c0,-0.04412 0.02872,-0.08108 0.06323,-0.08108l1.3097 -9e-005c0.03515,0 0.06359,0.03714 0.06359,0.08126l0 0.66467 0.37234 0 0 -0.66476c0,-0.18155 -0.14314,-0.33012 -0.31989,-0.33012l-1.54296 0c-0.17485,0 -0.31834,0.14866 -0.31834,0.33021l0 0.66467 0.37233 0z"/>
   <path id="_42088416" class="fil3" d="M21.2907 8.12277l-1.36178 0c-0.03579,0 -0.06523,-0.03886 -0.06523,-0.08362l0 -0.32794c0,-0.04412 0.02944,-0.08108 0.06523,-0.08108l1.36178 -9e-005c0.03551,0 0.06514,0.03714 0.06514,0.08126l9e-005 0.32785c0,0.04476 -0.02981,0.08371 -0.06523,0.08362zm0.42787 -0.41156c0,-0.18155 -0.14504,-0.33012 -0.32369,-0.33012l-1.56887 0c-0.17956,0 -0.32405,0.14866 -0.32405,0.33021l0 0.32785c0,0.18182 0.1444,0.33012 0.32405,0.33012l1.52992 0 0 0.35059c0,0.04448 -0.02981,0.08344 -0.06523,0.08344l-18.744 -9e-005 0 0.24777 18.8482 0c0.17865,0 0.32369,-0.1483 0.32369,-0.33112l0 -1.00865z"/>
   <path id="_42087040" class="fil3" d="M8.05132 8.36637l0 -0.65516c0,-0.04412 0.02935,-0.08108 0.0655,-0.08108l1.53182 -9e-005 0.12049 -0.24895 -1.77379 0c-0.182,0 -0.33057,0.14866 -0.33057,0.33021l0 0.65507 0.38655 0z"/>
   <path id="_42698088" class="fil3" d="M16.2127 7.11167l-0.41382 0 0 0.28029 0.41382 0 0 -0.28029zm0 1.2643l-0.41382 0 0 -0.69348 0.41382 0 0 0.69348z"/>
   <polygon id="_42688992" class="fil3" points="26.1363,8.80321 22.2309,8.80321 22.2309,9.05098 25.8461,9.05098 "/>
   <polygon id="_40254720" class="fil2" points="27.1864,7.90236 22.2309,7.90236 22.2309,8.15094 26.8975,8.15094 "/>
   <polygon id="_42178032" class="fil1" points="28.2373,7.00242 22.2309,7.00242 22.2309,7.25127 27.948,7.25127 "/>
   <polygon id="_39305472" class="fil2" points="10.0913,9.88442 9.83363,9.88442 9.83363,10.1542 9.65571,10.1542 9.65571,9.5524 10.0801,9.5524 10.0801,9.65586 9.83173,9.65586 9.83173,9.8163 10.0913,9.8163 "/>
   <path id="_67293168" class="fil2" d="M10.6688 9.85534c0.00127,-0.06613 -0.01377,-0.11405 -0.04031,-0.14603 -0.02908,-0.03361 -0.07284,-0.04919 -0.131,-0.04919 -0.05689,-0.00136 -0.09938,0.01503 -0.12981,0.04502 -0.02999,0.03225 -0.04439,0.08253 -0.04439,0.1502 0,0.06387 0.0144,0.11252 0.04285,0.14549 0.02681,0.03253 0.07093,0.04883 0.13135,0.04883 0.05816,0 0.10192,-0.01531 0.12937,-0.04729 0.02817,-0.03261 0.04158,-0.08081 0.04194,-0.14703zm0.19079 0c0,0.09041 -0.03234,0.1656 -0.09657,0.2225 -0.06486,0.05589 -0.1531,0.08407 -0.26553,0.08407 -0.11025,-0.0001 -0.19885,-0.02691 -0.26335,-0.0819 -0.06486,-0.05399 -0.0972,-0.12846 -0.0972,-0.22467 0,-0.09593 0.03234,-0.17031 0.09657,-0.22557 0.06359,-0.05508 0.15274,-0.08181 0.26398,-0.08181 0.11569,0 0.2052,0.02528 0.26779,0.07637 0.06197,0.05164 0.09431,0.12882 0.09431,0.23101z"/>
   <path id="_42895728" class="fil2" d="M11.3309 9.74636c0,-0.03035 -0.01023,-0.053 -0.02971,-0.06767 -0.01948,-0.0154 -0.04856,-0.02274 -0.08371,-0.02274l-0.07483 -9e-005 0 0.17973 0.08054 0c0.03261,0 0.05943,-0.00869 0.078,-0.024 0.02047,-0.01667 0.02971,-0.03869 0.02971,-0.06523zm0.28573 0.40785l-0.19749 0 -0.2061 -0.25538 -0.07039 0 0 0.25538 -0.17765 0 0 -0.60181 0.26625 0c0.08688,0 0.15464,0.01504 0.20293,0.04566 0.04819,0.02981 0.07157,0.0713 0.07157,0.12502 0,0.03959 -0.01187,0.07193 -0.03425,0.09557 -0.02301,0.02455 -0.05399,0.04149 -0.09231,0.05082l0.23744 0.28474z"/>
   <polygon id="_42906624" class="fil2" points="12.53,10.1542 12.3479,10.1542 12.261,9.81793 12.0976,10.1076 12.0137,10.1076 11.8656,9.8278 11.7777,10.1542 11.6058,10.1542 11.7835,9.5524 11.8528,9.5524 12.0657,9.90807 12.2776,9.5524 12.3527,9.5524 "/>
   <path id="_42759504" class="fil2" d="M13.1702 9.9636c0,0.05753 -0.02229,0.1059 -0.07058,0.14332 -0.04701,0.03641 -0.12048,0.05499 -0.21959,0.05499 -0.09775,-0.0001 -0.16868,-0.01794 -0.21407,-0.05273 -0.04412,-0.03651 -0.06713,-0.08407 -0.06713,-0.14549l0 -0.41129 0.17801 0 0 0.41673c0,0.02717 0.00961,0.04828 0.02809,0.06522 0.01821,0.01531 0.04792,0.02365 0.08923,0.02365 0.04213,-9e-005 0.07438,-0.00834 0.09331,-0.02591 0.01912,-0.01885 0.02908,-0.0463 0.02908,-0.08625l0 -0.39344 0.15365 0 0 0.4112z"/>
   <polygon id="_42610408" class="fil2" points="13.7912,10.1542 13.3,10.1542 13.3,9.5524 13.4761,9.5524 13.4761,10.0497 13.7912,10.0497 "/>
   <path id="_39320688" class="fil2" d="M14.2641 9.9934l-0.10926 -0.20075 -0.10871 0.20075 0.21797 0zm0.28192 0.16081l-0.19115 0 -0.05653 -0.10138 -0.27902 0 -0.04892 0.10138 -0.17485 0 0.34616 -0.60625 0.05526 0 0.34905 0.60625z"/>
   <path id="_66812832" class="fil2" d="M15.2916 9.85534c0.001,-0.06613 -0.0125,-0.11405 -0.04058,-0.14603 -0.02908,-0.03361 -0.07284,-0.04919 -0.13073,-0.04919 -0.05562,-0.00136 -0.09974,0.01503 -0.13009,0.04502 -0.02998,0.03225 -0.04375,0.08253 -0.04375,0.1502 0,0.06387 0.01377,0.11252 0.04221,0.14549 0.02845,0.03253 0.07121,0.04883 0.13163,0.04883 0.05943,0 0.10255,-0.01531 0.12946,-0.04729 0.02781,-0.03261 0.04185,-0.08081 0.04185,-0.14703zm0.19016 0c0.00036,0.09041 -0.03162,0.1656 -0.09621,0.2225 -0.06387,0.05589 -0.15211,0.08407 -0.26526,0.08407 -0.11052,-0.0001 -0.19912,-0.02691 -0.26335,-0.0819 -0.0655,-0.05399 -0.09811,-0.12846 -0.09811,-0.22467 0,-0.09593 0.03261,-0.17031 0.09684,-0.22557 0.06423,-0.05508 0.15247,-0.08181 0.26462,-0.08181 0.11569,0 0.2061,0.02528 0.26779,0.07637 0.06206,0.05164 0.09368,0.12882 0.09368,0.23101z"/>
   <polygon id="_66788328" class="fil2" points="16.1983,10.1542 16.1206,10.1542 15.7569,9.80579 15.7569,10.1542 15.5879,10.1542 15.5879,9.5524 15.6642,9.5524 16.0309,9.89747 16.0309,9.5524 16.1983,9.5524 "/>
   <polygon id="_42910064" class="fil2" points="16.8145,10.1542 16.337,10.1542 16.337,9.5524 16.7963,9.5524 16.7963,9.65586 16.5144,9.65586 16.5144,9.8163 16.8087,9.8163 16.8087,9.88442 16.5144,9.88442 16.5144,10.0497 16.8145,10.0497 "/>
   <polygon id="_66830520" class="fil2" points="17.6016,9.65586 17.4115,9.65586 17.4115,10.1542 17.2338,10.1542 17.2338,9.65586 17.0452,9.65586 17.0452,9.5524 17.6016,9.5524 "/>
   <polygon id="_42895416" class="fil2" points="18.151,10.1542 17.6732,10.1542 17.6732,9.5524 18.1328,9.5524 18.1328,9.65586 17.8506,9.65586 17.8506,9.8163 18.1456,9.8163 18.1456,9.88442 17.8506,9.88442 17.8506,10.0497 18.151,10.0497 "/>
   <path id="_67435648" class="fil2" d="M18.6326 9.9934l-0.10961 -0.20075 -0.10835 0.20075 0.21796 0zm0.28156 0.16081l-0.19205 0 -0.05626 -0.10138 -0.27893 0 -0.04928 0.10138 -0.17448 0 0.34705 -0.60625 0.05472 0 0.34923 0.60625z"/>
   <polygon id="_42622544" class="fil2" points="19.8241,10.1542 19.6422,10.1542 19.5546,9.81793 19.391,10.1076 19.3086,10.1076 19.1606,9.8278 19.0723,10.1542 18.8998,10.1542 19.0778,9.5524 19.1472,9.5524 19.3607,9.90807 19.5716,9.5524 19.6464,9.5524 "/>
  </g>
 </g>
</svg>
